BREAKING BAD COMPLETE SERIES ONE ALL SEVEN EPISODES IN ONE AVI FILE TVrip XviD

Format                           : AVI
Format/Info                      : Audio Video Interleave
Format profile                   : OpenDML
File size                        : 1.21 GiB
Duration                         : 5h 39mn
Overall bit rate                 : 256 Kbps
Writing application              : MEncoder SVN-r29352(20090610-gcc4.3.3)
Writing library                  : MPlayer

Video
ID                               : 0
Format                           : MPEG-4 Visual
Format profile                   : AdvancedSimple@L5
Format settings, BVOP            : Yes
Format settings, QPel            : No
Format settings, GMC             : No warppoints
Format settings, Matrix          : Default (H.263)
Codec ID                         : XVID
Codec ID/Hint                    : XviD
Duration                         : 5h 39mn
Bit rate                         : 487 Kbps
Width                            : 480 pixels
Height                           : 272 pixels
Display aspect ratio             : 16:9
Frame rate                       : 18.000 fps
Resolution                       : 24 bits
Colorimetry                      : 4:2:0
Scan type                        : Progressive
Bits/(Pixel*Frame)               : 0.207
Stream size                      : 978 MiB (79%)
Writing library                  : XviD 1.2.1 (UTC 2008-12-04)

Audio
ID                               : 1
Format                           : MPEG Audio
Format version                   : Version 2
Format profile                   : Layer 3
Codec ID                         : 55
Codec ID/Hint                    : MP3
Duration                         : 5h 39mn
Bit rate mode                    : Constant
Bit rate                         : 96.0 Kbps
Channel(s)                       : 2 channels
Sampling rate                    : 22.05 KHz
Resolution                       : 16 bits
Video delay                      : 111ms
Stream size                      : 233 MiB (19%)
Alignment                        : Aligned on interleaves
Interleave, duration             : 26 ms (0.47 video frame)
Interleave, preload duration     : 522 ms
Writing library                  : LAME3.98

Breaking Bad is an American television drama series created and produced by Vince Gilligan. The series is produced by Sony Pictures Television and broadcast in the United States and Canada on the cable channel AMC. It premiered on January 20, 2008, and completed its first seven-episode season on March 9, 2008. The show's 13-episode second season ran from March 8 to May 31, 2009. The third season began on March 21, 2010. 
http://www.imdb.com/title/tt0903747/

PLEASE SEED AND ENJOY THANKS

NOTE-> Ok this is the complete 7 episodes of series one of Breaking Bad all in 1 avi i will be uploading series 2 in 2 avi files ok this is ass small as i could get it in XviD without loseing to much quality

To watch this file on you,re PC then i recomend using VLC media player or MEDIA PLAYER CLASSIC 

To burn to disc the i recomend using CONVERTX 2 DVD click link below
 
http://thepiratebay.org/torrent/5018839/VSO.Convert-X.to.DVD.3.5.3%28vice%29

screen shots 
http://img97.imageshack.us/img97/1498/bbadseries1xvidviceavit.jpg
